<svg width="35" height="24" viewBox="0 0 35 24" fill="none" xmlns="http://www.w3.org/2000/svg">
<g clip-path="url(#clip0_2_2)">
<path d="M1.66031 19.0859C1.85284 21.0399 3.42857 22.4436 5.38915 22.5509C7.91146 22.689 11.9669 22.8364 17.7901 22.8364C23.6132 22.8364 27.6687 22.689 30.191 22.5509C32.1516 22.4436 33.7273 21.04 33.9198 19.0859C34.0855 17.4039 34.2313 15.0284 34.2313 11.8755C34.2313 8.72263 34.0855 6.3471 33.9198 4.6651C33.7273 2.71104 32.1516 1.30745 30.191 1.2001C27.6687 1.06199 23.6132 0.914673 17.7901 0.914673C11.9669 0.914673 7.91146 1.06199 5.38915 1.2001C3.42857 1.30745 1.85284 2.71104 1.66031 4.6651C1.49457 6.3471 1.34882 8.72263 1.34882 11.8755C1.34882 15.0284 1.49457 17.4039 1.66031 19.0859Z" stroke="white" stroke-linecap="round" stroke-linejoin="round"/>
<path d="M20.9217 8.36069C20.9217 8.36069 19.6691 7.40201 17.7901 7.40201C16.2242 7.40201 14.6584 8.36069 14.6584 9.63896C14.6584 12.8345 20.9217 10.9171 20.9217 14.1128C20.9217 15.391 19.3559 16.3496 17.7901 16.3496C15.9111 16.3496 14.6584 15.391 14.6584 15.391" stroke="white" stroke-linecap="round" stroke-linejoin="round"/>
<path d="M17.7901 7.40166V5.61215" stroke="white" stroke-linecap="round" stroke-linejoin="round"/>
<path d="M17.7901 18.1385V16.349" stroke="white" stroke-linecap="round" stroke-linejoin="round"/>
<path d="M8.59539 12.1915H7" stroke="white" stroke-linecap="round" stroke-linejoin="round"/>
<path d="M30.5954 12.1915H29" stroke="white" stroke-linecap="round" stroke-linejoin="round"/>
</g>
<defs>
<clipPath id="clip0_2_2">
<rect width="35" height="24" fill="white"/>
</clipPath>
</defs>
</svg>
