<svg width="38" height="38" viewBox="0 0 38 38" fill="none" xmlns="http://www.w3.org/2000/svg">
<path d="M2.66031 22.0859C2.85284 24.0399 4.42857 25.4436 6.38915 25.5509C8.91146 25.689 12.9669 25.8364 18.7901 25.8364C24.6132 25.8364 28.6687 25.689 31.191 25.5509C33.1516 25.4436 34.7273 24.04 34.9198 22.0859C35.0855 20.4039 35.2313 18.0284 35.2313 14.8755C35.2313 11.7226 35.0855 9.3471 34.9198 7.6651C34.7273 5.71104 33.1516 4.30745 31.191 4.2001C28.6687 4.06199 24.6132 3.91467 18.7901 3.91467C12.9669 3.91467 8.91146 4.06199 6.38915 4.2001C4.42857 4.30745 2.85284 5.71104 2.66031 7.6651C2.49457 9.3471 2.34882 11.7226 2.34882 14.8755C2.34882 18.0284 2.49457 20.4039 2.66031 22.0859Z" stroke="white" stroke-linecap="round" stroke-linejoin="round"/>
<path d="M21.9217 11.3607C21.9217 11.3607 20.6691 10.402 18.7901 10.402C17.2242 10.402 15.6584 11.3607 15.6584 12.639C15.6584 15.8345 21.9217 13.9171 21.9217 17.1128C21.9217 18.391 20.3559 19.3496 18.7901 19.3496C16.9111 19.3496 15.6584 18.391 15.6584 18.391" stroke="white" stroke-linecap="round" stroke-linejoin="round"/>
<path d="M18.7901 10.4017V8.61215" stroke="white" stroke-linecap="round" stroke-linejoin="round"/>
<path d="M18.7901 21.1385V19.349" stroke="white" stroke-linecap="round" stroke-linejoin="round"/>
<path d="M9.59539 15.1915H8" stroke="white" stroke-linecap="round" stroke-linejoin="round"/>
<path d="M31.5954 15.1915H30" stroke="white" stroke-linecap="round" stroke-linejoin="round"/>
</svg>
