<svg width="42" height="36" viewBox="0 0 42 36" fill="none" xmlns="http://www.w3.org/2000/svg">
<mask id="path-1-inside-1_156_1844" fill="white">
<path d="M9.67528 35.6929C11.3377 35.6176 13.0675 35.3088 14.4641 34.365H14.4647C14.4647 34.3657 14.4647 34.3663 14.4654 34.3669C14.655 34.7417 14.9277 35.0343 15.3032 35.2217C15.3498 35.2478 15.3964 35.2708 15.443 35.287C15.4833 35.3069 15.5262 35.3231 15.5696 35.3362C15.5797 35.3431 15.593 35.3462 15.603 35.3499L15.6037 35.3487C15.7826 35.4072 15.9747 35.4402 16.1775 35.4402H17.7902H25.1939H26.6075C27.1763 35.4402 27.6715 35.4402 27.6715 35.4402C29.012 35.2297 28.1074 33.3627 26.1382 33.4449L23.8735 33.5962L23.7967 33.5862C25.7193 32.541 27 30.7823 27 28.6656C27 27.9989 26.8733 27.3558 26.6346 26.7575C26.6346 26.7575 26.6346 26.7575 26.6352 26.7575C26.6547 26.7513 26.6717 26.7445 26.6913 26.7345C26.8878 26.6623 27.0806 26.587 27.2733 26.5048L27.3288 27.0925L27.3823 27.6764C27.7981 28.5274 28.1206 31.8182 28.2403 33.2015C28.1805 34.1714 28.217 35.381 29.9966 35.4532L30.9213 35.4302C31.533 35.391 31.8492 35.2229 31.979 35.0031C32.1718 34.6776 31.9425 34.2337 31.6262 33.9218C31.2376 33.537 30.7393 33.3665 30.4268 33.0645C30.4035 31.5748 30.3601 28.0493 30.4697 27.4218L31.1947 24.5027L31.2848 24.1379C31.5809 23.9013 31.87 23.6517 32.1491 23.3889L36.8056 22.7969C36.9889 23.3591 37.1849 23.9343 37.3612 24.4535C37.5338 25.213 37.1319 25.6662 37.2346 26.0578C37.7405 27.9478 39.6895 28.8711 39.8923 27.4149C39.9188 27.2176 39.9156 26.9779 39.8722 26.6922L39.3865 24.4834L39.287 23.8913C39.2303 23.5664 38.8775 22.4321 38.6514 21.5313C38.4888 20.8739 37.92 20.3908 37.2384 20.3285C36.8491 20.2955 36.4629 20.2762 36.0938 20.2955H36.0837L34.7766 20.2233C34.8333 20.1411 34.883 20.0621 34.9334 19.9799L34.9801 19.9014C35.2591 19.4345 35.4821 18.9446 35.6383 18.4353C35.9174 17.5445 36.0075 16.6013 35.8941 15.6712C35.8576 15.3488 35.7946 15.03 35.7051 14.7144C35.7045 14.7138 35.7045 14.7125 35.7039 14.7119C35.7675 14.4262 35.8267 14.0981 35.8702 13.7233C35.9098 13.3915 35.9332 13.0267 35.9332 12.6289C35.9136 11.0445 34.7993 9.84173 35.3744 9.27334C35.8072 8.60909 36.3294 8.84939 37.5993 9.14136C37.8223 9.19117 38.0523 9.22354 38.2847 9.22354C38.3748 9.22354 38.4643 9.22042 38.5575 9.20735C38.6173 9.20112 38.6772 9.19428 38.737 9.18121C39.1963 9.21732 39.6416 9.10214 40.0108 8.86869C40.2571 8.71741 40.47 8.51384 40.6332 8.26731C40.6596 8.22435 40.6861 8.18514 40.7125 8.13907C40.7497 8.07308 40.7824 8.0077 40.8127 7.9386L41.5441 6.80807L41.9497 6.18677C42.0763 5.88421 41.9567 5.54243 41.6707 5.38804L40.9425 4.99023L39.2763 4.08007L39.2561 4.07011L39.023 3.93875C38.5808 3.69845 37.9691 3.14002 37.8356 2.66316L37.7027 2.22613C37.6731 2.08793 37.6296 1.95968 37.5666 1.83828C36.5751 -0.153863 31.5362 -0.127714 30.2927 1.48966C30.2297 1.57183 30.1497 1.71004 30.0564 1.89743C30.0533 1.90054 30.0533 1.90365 30.0495 1.90738C29.4076 3.19232 28.1338 6.65679 27.2696 8.83258L26.7839 10.016L26.7801 10.0223L24.9646 12.4514C24.2395 12.9675 23.6172 13.4176 23.0622 13.8584C22.4033 14.3776 21.8344 14.8875 21.2794 15.4758C20.6936 16.1002 20.1254 16.813 19.4929 17.7238L16.999 21.2804C15.4689 23.4854 15.1961 24.3203 14.7369 26.2925C14.7369 26.2962 14.7337 26.3024 14.7337 26.3056C14.5643 26.7793 14.4477 27.2855 14.391 27.8115C14.3809 27.8738 14.3746 27.936 14.3715 27.9983C14.3614 27.9983 14.3513 27.9951 14.3413 27.9951C14.3312 28.6233 13.8556 30.7462 13.6093 31.3382C13.2905 32.1102 12.6751 32.6923 11.9531 33.1031C10.9087 33.6946 10.1043 33.57 8.94014 33.8197C8.69446 33.8726 8.44437 33.9131 8.1924 33.9504C7.83522 33.956 7.43457 33.989 7.04716 34.0799C7.04653 34.0799 7.04591 34.0799 7.04528 34.0799C6.52809 34.1241 6.00461 34.1583 5.47735 34.1976C3.62154 34.3358 1.72289 34.5692 -1.67475e-06 35.7427C0.296071 35.7589 0.591516 35.772 0.884439 35.7851C3.81808 35.9102 6.73786 35.8249 9.67528 35.6929Z"/>
</mask>
<path d="M9.67528 35.6929C11.3377 35.6176 13.0675 35.3088 14.4641 34.365H14.4647C14.4647 34.3657 14.4647 34.3663 14.4654 34.3669C14.655 34.7417 14.9277 35.0343 15.3032 35.2217C15.3498 35.2478 15.3964 35.2708 15.443 35.287C15.4833 35.3069 15.5262 35.3231 15.5696 35.3362C15.5797 35.3431 15.593 35.3462 15.603 35.3499L15.6037 35.3487C15.7826 35.4072 15.9747 35.4402 16.1775 35.4402H17.7902H25.1939H26.6075C27.1763 35.4402 27.6715 35.4402 27.6715 35.4402C29.012 35.2297 28.1074 33.3627 26.1382 33.4449L23.8735 33.5962L23.7967 33.5862C25.7193 32.541 27 30.7823 27 28.6656C27 27.9989 26.8733 27.3558 26.6346 26.7575C26.6346 26.7575 26.6346 26.7575 26.6352 26.7575C26.6547 26.7513 26.6717 26.7445 26.6913 26.7345C26.8878 26.6623 27.0806 26.587 27.2733 26.5048L27.3288 27.0925L27.3823 27.6764C27.7981 28.5274 28.1206 31.8182 28.2403 33.2015C28.1805 34.1714 28.217 35.381 29.9966 35.4532L30.9213 35.4302C31.533 35.391 31.8492 35.2229 31.979 35.0031C32.1718 34.6776 31.9425 34.2337 31.6262 33.9218C31.2376 33.537 30.7393 33.3665 30.4268 33.0645C30.4035 31.5748 30.3601 28.0493 30.4697 27.4218L31.1947 24.5027L31.2848 24.1379C31.5809 23.9013 31.87 23.6517 32.1491 23.3889L36.8056 22.7969C36.9889 23.3591 37.1849 23.9343 37.3612 24.4535C37.5338 25.213 37.1319 25.6662 37.2346 26.0578C37.7405 27.9478 39.6895 28.8711 39.8923 27.4149C39.9188 27.2176 39.9156 26.9779 39.8722 26.6922L39.3865 24.4834L39.287 23.8913C39.2303 23.5664 38.8775 22.4321 38.6514 21.5313C38.4888 20.8739 37.92 20.3908 37.2384 20.3285C36.8491 20.2955 36.4629 20.2762 36.0938 20.2955H36.0837L34.7766 20.2233C34.8333 20.1411 34.883 20.0621 34.9334 19.9799L34.9801 19.9014C35.2591 19.4345 35.4821 18.9446 35.6383 18.4353C35.9174 17.5445 36.0075 16.6013 35.8941 15.6712C35.8576 15.3488 35.7946 15.03 35.7051 14.7144C35.7045 14.7138 35.7045 14.7125 35.7039 14.7119C35.7675 14.4262 35.8267 14.0981 35.8702 13.7233C35.9098 13.3915 35.9332 13.0267 35.9332 12.6289C35.9136 11.0445 34.7993 9.84173 35.3744 9.27334C35.8072 8.60909 36.3294 8.84939 37.5993 9.14136C37.8223 9.19117 38.0523 9.22354 38.2847 9.22354C38.3748 9.22354 38.4643 9.22042 38.5575 9.20735C38.6173 9.20112 38.6772 9.19428 38.737 9.18121C39.1963 9.21732 39.6416 9.10214 40.0108 8.86869C40.2571 8.71741 40.47 8.51384 40.6332 8.26731C40.6596 8.22435 40.6861 8.18514 40.7125 8.13907C40.7497 8.07308 40.7824 8.0077 40.8127 7.9386L41.5441 6.80807L41.9497 6.18677C42.0763 5.88421 41.9567 5.54243 41.6707 5.38804L40.9425 4.99023L39.2763 4.08007L39.2561 4.07011L39.023 3.93875C38.5808 3.69845 37.9691 3.14002 37.8356 2.66316L37.7027 2.22613C37.6731 2.08793 37.6296 1.95968 37.5666 1.83828C36.5751 -0.153863 31.5362 -0.127714 30.2927 1.48966C30.2297 1.57183 30.1497 1.71004 30.0564 1.89743C30.0533 1.90054 30.0533 1.90365 30.0495 1.90738C29.4076 3.19232 28.1338 6.65679 27.2696 8.83258L26.7839 10.016L26.7801 10.0223L24.9646 12.4514C24.2395 12.9675 23.6172 13.4176 23.0622 13.8584C22.4033 14.3776 21.8344 14.8875 21.2794 15.4758C20.6936 16.1002 20.1254 16.813 19.4929 17.7238L16.999 21.2804C15.4689 23.4854 15.1961 24.3203 14.7369 26.2925C14.7369 26.2962 14.7337 26.3024 14.7337 26.3056C14.5643 26.7793 14.4477 27.2855 14.391 27.8115C14.3809 27.8738 14.3746 27.936 14.3715 27.9983C14.3614 27.9983 14.3513 27.9951 14.3413 27.9951C14.3312 28.6233 13.8556 30.7462 13.6093 31.3382C13.2905 32.1102 12.6751 32.6923 11.9531 33.1031C10.9087 33.6946 10.1043 33.57 8.94014 33.8197C8.69446 33.8726 8.44437 33.9131 8.1924 33.9504C7.83522 33.956 7.43457 33.989 7.04716 34.0799C7.04653 34.0799 7.04591 34.0799 7.04528 34.0799C6.52809 34.1241 6.00461 34.1583 5.47735 34.1976C3.62154 34.3358 1.72289 34.5692 -1.67475e-06 35.7427C0.296071 35.7589 0.591516 35.772 0.884439 35.7851C3.81808 35.9102 6.73786 35.8249 9.67528 35.6929Z" stroke="white" stroke-width="2" mask="url(#path-1-inside-1_156_1844)"/>
</svg>
