<svg width="539" height="596" viewBox="0 0 539 596" fill="none" xmlns="http://www.w3.org/2000/svg">
<path fill-rule="evenodd" clip-rule="evenodd" d="M529.441 654.873H-4.00002C-10.6274 654.873 -16 649.501 -16 642.873V4C76.0511 23.4912 174.962 77.8001 196.418 203.182C231.257 406.778 271.176 492.651 529.441 654.873Z" fill="#C5413D"/>
<path d="M529.441 654.873V657.373H538.122L530.771 652.756L529.441 654.873ZM-16 4L-15.4821 1.55423L-18.5 0.91521V4H-16ZM196.418 203.182L193.953 203.604L196.418 203.182ZM529.441 652.373H-4.00002V657.373H529.441V652.373ZM-4.00002 652.373C-9.24672 652.373 -13.5 648.12 -13.5 642.873H-18.5C-18.5 650.881 -12.0082 657.373 -4.00002 657.373V652.373ZM-13.5 642.873V4H-18.5V642.873H-13.5ZM198.882 202.761C177.178 75.9301 77.05 21.1473 -15.4821 1.55423L-16.5179 6.44577C75.0521 25.8351 172.746 79.6701 193.953 203.604L198.882 202.761ZM530.771 652.756C401.708 571.688 327.519 509.884 281.199 443.118C234.911 376.398 216.291 304.494 198.882 202.761L193.953 203.604C211.384 305.466 230.143 378.297 277.091 445.968C324.007 513.593 398.91 575.835 528.112 656.99L530.771 652.756Z" fill="black"/>
</svg>
