<svg width="26" height="26" viewBox="0 0 26 26" fill="none" xmlns="http://www.w3.org/2000/svg">
<g clip-path="url(#clip0_136_2)">
<mask id="path-1-inside-1_136_2" fill="white">
<path d="M25.3174 4.48462C25.6388 5.3114 25.8586 6.25641 25.9218 7.6402C25.9849 9.02657 26 9.46932 26 13C26 16.5305 25.9849 16.9732 25.9218 18.3598C25.8586 19.7434 25.639 20.6884 25.3174 21.5154C24.6422 23.2616 23.2618 24.642 21.5156 25.3172C20.6886 25.6388 19.7438 25.8584 18.36 25.9216C16.9736 25.9849 16.5307 25.9998 13.0002 25.9998C9.46971 25.9998 9.02696 25.9849 7.6404 25.9216C6.25661 25.8584 5.3116 25.6388 4.48482 25.3172C3.61737 24.9909 2.83145 24.4791 2.18221 23.8178C1.52086 23.1686 1.00908 22.3826 0.68277 21.5154C0.36142 20.6884 0.141632 19.7434 0.0785522 18.3598C0.0150757 16.9734 0 16.5305 0 12.9998C0 9.46932 0.0150757 9.02657 0.0785522 7.64C0.141434 6.25641 0.361023 5.3114 0.682175 4.48442C1.00868 3.61697 1.52066 2.83125 2.18201 2.18201C2.83145 1.52066 3.61717 1.00888 4.48462 0.682571C5.3116 0.361221 6.25641 0.141434 7.6402 0.0781555C9.02657 0.0150757 9.46951 0 13 0C16.5305 0 16.9734 0.0150757 18.3598 0.0785523C19.7436 0.141434 20.6884 0.361023 21.5154 0.682175C22.3828 1.00868 23.1687 1.52066 23.818 2.18201C24.4793 2.83145 24.9911 3.61717 25.3174 4.48462Z"/>
</mask>
<path d="M25.3174 4.48462C25.6388 5.3114 25.8586 6.25641 25.9218 7.6402C25.9849 9.02657 26 9.46932 26 13C26 16.5305 25.9849 16.9732 25.9218 18.3598C25.8586 19.7434 25.639 20.6884 25.3174 21.5154C24.6422 23.2616 23.2618 24.642 21.5156 25.3172C20.6886 25.6388 19.7438 25.8584 18.36 25.9216C16.9736 25.9849 16.5307 25.9998 13.0002 25.9998C9.46971 25.9998 9.02696 25.9849 7.6404 25.9216C6.25661 25.8584 5.3116 25.6388 4.48482 25.3172C3.61737 24.9909 2.83145 24.4791 2.18221 23.8178C1.52086 23.1686 1.00908 22.3826 0.68277 21.5154C0.36142 20.6884 0.141632 19.7434 0.0785522 18.3598C0.0150757 16.9734 0 16.5305 0 12.9998C0 9.46932 0.0150757 9.02657 0.0785522 7.64C0.141434 6.25641 0.361023 5.3114 0.682175 4.48442C1.00868 3.61697 1.52066 2.83125 2.18201 2.18201C2.83145 1.52066 3.61717 1.00888 4.48462 0.682571C5.3116 0.361221 6.25641 0.141434 7.6402 0.0781555C9.02657 0.0150757 9.46951 0 13 0C16.5305 0 16.9734 0.0150757 18.3598 0.0785523C19.7436 0.141434 20.6884 0.361023 21.5154 0.682175C22.3828 1.00868 23.1687 1.52066 23.818 2.18201C24.4793 2.83145 24.9911 3.61717 25.3174 4.48462Z" stroke="white" stroke-width="2" mask="url(#path-1-inside-1_136_2)"/>
<mask id="path-2-inside-2_136_2" fill="white">
<path d="M12.9998 6.27586C9.313 6.27586 6.32425 9.26481 6.32425 12.9516C6.32425 16.6384 9.313 19.6272 12.9998 19.6272C16.6868 19.6272 19.6756 16.6384 19.6756 12.9516C19.6756 9.26481 16.6868 6.27586 12.9998 6.27586Z"/>
</mask>
<path d="M12.9998 6.27586C9.313 6.27586 6.32425 9.26481 6.32425 12.9516C6.32425 16.6384 9.313 19.6272 12.9998 19.6272C16.6868 19.6272 19.6756 16.6384 19.6756 12.9516C19.6756 9.26481 16.6868 6.27586 12.9998 6.27586Z" stroke="white" stroke-width="2" mask="url(#path-2-inside-2_136_2)"/>
<path d="M21.6035 6.11179C21.6035 6.72572 21.1057 7.22345 20.4918 7.22345C19.8777 7.22345 19.38 6.72572 19.38 6.11179C19.38 5.49773 19.8777 5 20.4918 5C21.1057 5 21.6035 5.49773 21.6035 6.11179V6.11179Z" fill="url(#paint0_linear_136_2)"/>
</g>
<defs>
<linearGradient id="paint0_linear_136_2" x1="19.7057" y1="6.8978" x2="21.2778" y2="5.32566" gradientUnits="userSpaceOnUse">
<stop stop-color="white"/>
<stop offset="1" stop-color="white"/>
</linearGradient>
<clipPath id="clip0_136_2">
<rect width="26" height="26" fill="white"/>
</clipPath>
</defs>
</svg>
