<svg width="32" height="32" viewBox="0 0 32 32" fill="none" xmlns="http://www.w3.org/2000/svg">
<g clip-path="url(#clip0_101_105)">
<path d="M7.42727 24.4967H7.19186L7.42668 24.7316L7.42727 24.4967ZM7.42727 24.4967V24.7322M7.42727 24.4967C8.04479 24.4983 8.65649 24.3775 9.22704 24.1412C9.79759 23.905 10.3157 23.558 10.7514 23.1204L7.42727 24.7322M7.42727 24.7322V24.9967H7.42659H6.98474L12.5654 30.5778M7.42727 24.7322L19.4396 30.5778C18.5275 31.4885 17.2914 32 16.0025 32C14.7137 32 13.4775 31.4885 12.5654 30.5778M12.5654 30.5778L12.919 30.2242M12.5654 30.5778L12.919 30.2242M12.919 30.2242C13.7373 31.0412 14.8463 31.5 16.0025 31.5C17.1589 31.5 18.268 31.0411 19.0863 30.224L12.919 30.2242ZM22.9617 24.588C23.4098 24.7736 23.8809 24.8948 24.361 24.9489L12.9187 30.224L7.68595 24.9909C8.28077 24.9625 8.86691 24.8315 9.41832 24.6032C10.0497 24.3418 10.623 23.9579 11.1052 23.4736C11.1054 23.4735 11.1056 23.4733 11.1057 23.4732L15.9171 18.6635C15.9934 18.5921 16.094 18.5523 16.1986 18.5523C16.3032 18.5523 16.4038 18.5921 16.4801 18.6635L21.2743 23.458C21.2744 23.4581 21.2746 23.4582 21.2747 23.4584C21.7569 23.9426 22.3303 24.3266 22.9617 24.588Z" stroke="white"/>
<path d="M9.41845 7.39751C8.86524 7.16845 8.27705 7.03749 7.68022 7.00981L12.9137 1.77604C12.9137 1.77597 12.9138 1.77589 12.9139 1.77581C13.7322 0.958849 14.8412 0.5 15.9974 0.5C17.1538 0.5 18.2629 0.958936 19.0812 1.77604L24.3563 7.05142C23.8778 7.10573 23.4083 7.22673 22.9616 7.4117C22.33 7.67318 21.7566 8.05729 21.2745 8.54181C21.2744 8.54193 21.2743 8.54206 21.2742 8.54218L16.476 13.3407C16.476 13.3407 16.476 13.3407 16.4759 13.3407C16.4023 13.4141 16.3026 13.4553 16.1986 13.4553C16.0947 13.4553 15.9949 13.4141 15.9213 13.3407L11.1058 8.52799C11.1057 8.52784 11.1055 8.52769 11.1054 8.52755C10.6233 8.04306 10.0499 7.65897 9.41845 7.39751ZM7.42675 7.00428L6.97914 7.0038L7.42675 7.00428Z" stroke="white"/>
<path d="M30.326 13.0245L30.2187 12.9172L26.73 9.42826C26.6976 9.43125 26.665 9.43294 26.6324 9.43329L26.627 9.43335L24.953 9.43332C24.2117 9.43411 23.5007 9.72773 22.9749 10.2502C22.9747 10.2504 22.9745 10.2506 22.9743 10.2507L18.1768 15.0496L18.1765 15.0499C17.6505 15.5752 16.9375 15.8703 16.1941 15.8703C15.4507 15.8703 14.7377 15.5752 14.2117 15.0499L14.2114 15.0497L9.39546 10.2334C9.39532 10.2333 9.39518 10.2331 9.39504 10.233C8.87038 9.71131 8.16128 9.41745 7.42145 9.41508H5.37H5.36171L5.36171 9.41501C5.33573 9.41458 5.3098 9.4133 5.28396 9.41119L1.77643 12.917C1.7764 12.9171 1.77637 12.9171 1.77635 12.9171C0.959063 13.7355 0.5 14.8449 0.5 16.0015C0.5 17.1581 0.959013 18.2674 1.77621 19.0858L30.326 13.0245ZM30.326 13.0245L30.3264 13.0246M30.326 13.0245L30.3264 13.0246M30.3264 13.0246C31.0793 13.8314 31.5 14.8953 31.5 16.0025C31.5 17.1591 31.041 18.2684 30.2238 19.0868L30.3264 13.0246ZM5.28122 22.591L1.77643 19.086L30.2236 19.087L26.7352 22.5756C26.7023 22.5726 26.6693 22.571 26.6362 22.5707V22.5707H26.632H24.9582C24.2167 22.5701 23.5055 22.2761 22.98 21.7529C22.9799 21.7528 22.9798 21.7527 22.9797 21.7526L18.1819 16.9534L18.1818 16.9534C17.1157 15.8872 15.2822 15.8888 14.2167 16.9532L14.2165 16.9534L9.40063 21.7695C9.40047 21.7697 9.40032 21.7698 9.40016 21.77C8.87545 22.2914 8.16641 22.5849 7.42675 22.5869H5.36798V22.5868L5.35833 22.587C5.33256 22.5875 5.30684 22.5889 5.28122 22.591Z" stroke="white"/>
</g>
<defs>
<clipPath id="clip0_101_105">
<rect width="32" height="32" fill="white"/>
</clipPath>
</defs>
</svg>
