<svg width="32" height="32" viewBox="0 0 32 32" fill="none" xmlns="http://www.w3.org/2000/svg">
<g clip-path="url(#clip0_101_105)">
<mask id="path-1-inside-1_101_105" fill="white">
<path d="M24.9527 24.4815C24.3352 24.4831 23.7235 24.3623 23.153 24.126C22.5824 23.8898 22.0643 23.5428 21.6286 23.1052L16.829 18.3052C16.6592 18.1429 16.4335 18.0523 16.1986 18.0523C15.9638 18.0523 15.738 18.1429 15.5683 18.3052L10.7514 23.1204C10.3157 23.558 9.79759 23.905 9.22704 24.1412C8.65649 24.3775 8.04479 24.4983 7.42727 24.4967H6.48477L12.5654 30.5778C13.4775 31.4885 14.7137 32 16.0025 32C17.2914 32 18.5275 31.4885 19.4396 30.5778L25.5355 24.4815H24.9527Z"/>
</mask>
<path d="M24.9527 24.4815C24.3352 24.4831 23.7235 24.3623 23.153 24.126C22.5824 23.8898 22.0643 23.5428 21.6286 23.1052L16.829 18.3052C16.6592 18.1429 16.4335 18.0523 16.1986 18.0523C15.9638 18.0523 15.738 18.1429 15.5683 18.3052L10.7514 23.1204C10.3157 23.558 9.79759 23.905 9.22704 24.1412C8.65649 24.3775 8.04479 24.4983 7.42727 24.4967H6.48477L12.5654 30.5778C13.4775 31.4885 14.7137 32 16.0025 32C17.2914 32 18.5275 31.4885 19.4396 30.5778L25.5355 24.4815H24.9527Z" stroke="white" stroke-width="2" mask="url(#path-1-inside-1_101_105)"/>
<mask id="path-2-inside-2_101_105" fill="white">
<path d="M7.42727 7.50428C8.04482 7.5025 8.65659 7.62323 9.22717 7.85947C9.79775 8.09572 10.3158 8.4428 10.7514 8.88062L15.5683 13.6948C15.7356 13.8616 15.9623 13.9553 16.1986 13.9553C16.4349 13.9553 16.6616 13.8616 16.829 13.6948L21.6286 8.89481C22.0642 8.45699 22.5823 8.10991 23.1528 7.87367C23.7234 7.63742 24.3352 7.51669 24.9527 7.51847H25.5304L19.4345 1.42223C18.5225 0.511517 17.2863 0 15.9974 0C14.7086 0 13.4724 0.511517 12.5604 1.42223L6.47971 7.50327L7.42727 7.50428Z"/>
</mask>
<path d="M7.42727 7.50428C8.04482 7.5025 8.65659 7.62323 9.22717 7.85947C9.79775 8.09572 10.3158 8.4428 10.7514 8.88062L15.5683 13.6948C15.7356 13.8616 15.9623 13.9553 16.1986 13.9553C16.4349 13.9553 16.6616 13.8616 16.829 13.6948L21.6286 8.89481C22.0642 8.45699 22.5823 8.10991 23.1528 7.87367C23.7234 7.63742 24.3352 7.51669 24.9527 7.51847H25.5304L19.4345 1.42223C18.5225 0.511517 17.2863 0 15.9974 0C14.7086 0 13.4724 0.511517 12.5604 1.42223L6.47971 7.50327L7.42727 7.50428Z" stroke="white" stroke-width="2" mask="url(#path-2-inside-2_101_105)"/>
<mask id="path-3-inside-3_101_105" fill="white">
<path d="M30.5723 12.5637L26.8884 8.8796C26.8055 8.91411 26.7167 8.93235 26.627 8.93332H24.9528C24.0792 8.93418 23.2414 9.28026 22.6218 9.89615L17.8232 14.6961C17.3909 15.1278 16.805 15.3703 16.1941 15.3703C15.5832 15.3703 14.9972 15.1278 14.565 14.6961L9.74807 9.87892C9.12988 9.26399 8.29415 8.91765 7.42222 8.91508H5.37C5.28525 8.91367 5.20145 8.89685 5.12272 8.86542L1.42265 12.5637C0.511681 13.4759 0 14.7123 0 16.0015C0 17.2907 0.511681 18.5272 1.42265 19.4393L5.1207 23.1376C5.19933 23.1057 5.28315 23.0886 5.36798 23.0869H7.42729C8.29909 23.0847 9.13485 22.7388 9.75314 22.1241L14.57 17.3069C15.4406 16.4373 16.9577 16.4363 17.8282 17.3069L22.6269 22.1069C23.246 22.7235 24.084 23.07 24.9578 23.0707H26.632C26.7221 23.0715 26.8111 23.0894 26.8945 23.1234L30.5774 19.4403C31.4883 18.5282 32 17.2917 32 16.0025C32 14.7133 31.4883 13.4769 30.5774 12.5647L30.5723 12.5637Z"/>
</mask>
<path d="M30.5723 12.5637L26.8884 8.8796C26.8055 8.91411 26.7167 8.93235 26.627 8.93332H24.9528C24.0792 8.93418 23.2414 9.28026 22.6218 9.89615L17.8232 14.6961C17.3909 15.1278 16.805 15.3703 16.1941 15.3703C15.5832 15.3703 14.9972 15.1278 14.565 14.6961L9.74807 9.87892C9.12988 9.26399 8.29415 8.91765 7.42222 8.91508H5.37C5.28525 8.91367 5.20145 8.89685 5.12272 8.86542L1.42265 12.5637C0.511681 13.4759 0 14.7123 0 16.0015C0 17.2907 0.511681 18.5272 1.42265 19.4393L5.1207 23.1376C5.19933 23.1057 5.28315 23.0886 5.36798 23.0869H7.42729C8.29909 23.0847 9.13485 22.7388 9.75314 22.1241L14.57 17.3069C15.4406 16.4373 16.9577 16.4363 17.8282 17.3069L22.6269 22.1069C23.246 22.7235 24.084 23.07 24.9578 23.0707H26.632C26.7221 23.0715 26.8111 23.0894 26.8945 23.1234L30.5774 19.4403C31.4883 18.5282 32 17.2917 32 16.0025C32 14.7133 31.4883 13.4769 30.5774 12.5647L30.5723 12.5637Z" stroke="white" stroke-width="2" mask="url(#path-3-inside-3_101_105)"/>
</g>
<defs>
<clipPath id="clip0_101_105">
<rect width="32" height="32" fill="white"/>
</clipPath>
</defs>
</svg>
