<svg width="30" height="31" viewBox="0 0 30 31" fill="none" xmlns="http://www.w3.org/2000/svg">
<path d="M28.2595 9.11885C27.5424 7.5344 26.5131 6.11187 25.2062 4.88595C23.8994 3.67159 22.3843 2.71167 20.6958 2.04088C18.9494 1.34696 17.0989 1 15.1907 1C13.2824 1 11.4319 1.34696 9.68556 2.04088C7.99703 2.71167 6.48197 3.66002 5.17509 4.88595C3.86821 6.11187 2.83891 7.5344 2.12186 9.11885C1.38168 10.7611 1 12.5191 1 14.3232C1 17.4806 2.17965 20.5107 4.34236 22.9163L3.18583 29.2194L9.3386 26.4784C11.1775 27.2648 13.132 27.658 15.1791 27.658C17.0874 27.658 18.9378 27.3111 20.6842 26.6172C22.3727 25.9464 23.8878 24.998 25.1947 23.7721C26.5015 22.5462 27.5308 21.1236 28.2479 19.5392C28.9881 17.8969 29.3697 16.139 29.3697 14.3348C29.3813 12.5191 28.9996 10.7727 28.2595 9.11885Z" stroke="white"/>
<path d="M20.9503 16.9833C20.3489 16.6826 19.9094 16.4975 19.5972 16.3819C19.4005 16.3125 18.9379 16.1043 18.776 16.2315C18.2671 16.6479 17.7235 17.8275 17.1453 18.0473C15.7112 17.7697 14.3812 16.7867 13.3403 15.7805C12.8777 15.341 12.0219 14.0919 11.8368 13.7565C11.8021 13.4096 12.4266 12.947 12.5654 12.681C13.2825 11.8714 12.7389 11.3625 12.6464 11.0271C12.4845 10.6802 12.2069 10.0556 11.964 9.54677C11.7559 9.21138 11.7096 8.71407 11.3395 8.52903C9.76659 7.71945 8.86454 9.3386 8.49445 10.1829C6.26235 15.5607 19.6781 25.796 22.4075 18.7412C22.5463 18.1282 22.4884 17.8969 22.2803 17.6194C21.8639 17.3302 21.3782 17.203 20.9503 16.9833Z" stroke="white"/>
</svg>
